<svg viewBox="0 0 313 223" fill-rule="evenodd" clip-rule="evenodd" stroke-linecap="round" stroke-linejoin="round" stroke-miterlimit="1.5">
    <path class="NoteDisplay__music-lines" d="M32.626 84.975h277.999M32.626 104.026h277.999M32.626 123.078h277.999M32.626 142.129h277.999M32.626 161.18h277.999" />
    <g class="NoteDisplay__bass-clef">
        <circle cx="90.531" cy="95.798" r="4.324" />
        <circle cx="90.531" cy="113.329" r="4.324" />
        <path d="M41.326 148.508l-.701-1.402c.084-.235 22.48-13.166 27.816-27.817 2.703-6.173 4.653-13.588 2.824-20.301-.735-2.698-1.349-4.087-2.824-6.463-2.594-4.179-8.396-5.091-12.851-4.096-2.449.546-4.435 1.269-6.316 3.979-.982 1.178-1.802 3.274-2.104 4.091-.1.27.057.647.293.811.235.163.538.332.816.264 1.123-.275 2.992-1.033 5.298-.344.476.142.963.253 1.424.438 2.423.972 5.2 2.158 4.675 7.596-.211 2.18-3.826 4.941-7.407 5.086-.849.034-1.701-.035-2.547-.119-1.596-.157-3.073-.627-4.301-1.683-2.252-1.935-3.053-4.844-3.198-7.699-.19-3.767 1.77-7.426 4.363-9.96 1.692-1.654 3.858-3.27 6.077-4.208 6.147-2.598 13.703-2.176 19.629.908 2.129 1.108 4.287 2.349 5.849 4.22 1.75 2.095 2.671 3.347 3.725 5.882.986 2.374 1.346 4.275 1.64 6.816 1.325 11.493-7.263 20.744-15.358 27.626a101.312 101.312 0 01-3.567 2.906c-2.81 2.173-5.413 4.006-8.427 5.888-9.228 5.279-14.711 7.698-14.711 7.698" />
    </g>
</svg>