<svg viewBox="0 0 313 223" fill-rule="evenodd" clip-rule="evenodd" stroke-linecap="round" stroke-linejoin="round" stroke-miterlimit="1.5">
    <g class="NoteDisplay__treble-clef">
        <path class="treble-clef" d="M74.335 157.777c-1.236-7.691-2.686-16.736-4.163-25.761 10.32.901 16.089 19.772 4.163 25.761m-4.074 1.387c-22.07 4.42-23.343-18.063-19.73-30.289 2.091-7.077 7.978-12.387 13.764-19.213.681 4.052 1.421 8.625 2.185 13.452-14.515 4.925-14.635 28.301-1.222 30.492-6.365-4.988-7.791-18.137 1.111-21.119a9.96 9.96 0 011.52-.369c1.415 9.125 2.839 18.533 4.066 26.622-.538.163-1.102.305-1.694.424m.047-93.368c1.286 0 3.842 1.912 3.842 6.669 0 7.78-4.551 15.591-10.124 23.386-2.816-20.189 3.403-30.055 6.282-30.055m-1.437 56.687c-.089.016-.172.043-.261.06a1792.642 1792.642 0 00-2.556-15.017c3.583-4.487 6.972-9.697 9.208-16.443 6.467-19.507-3.104-36.958-5.557-36.958-8.009 0-11.607 21.181-7.436 44.14-7.649 10.371-16.461 20.704-18.129 30.888-2.915 17.792 6.607 36.378 27.232 32.343.328-.064.651-.136.968-.216 1.156 7.619 2.103 13.811 2.644 17.057 1.328 7.966-2.398 14.507-8.77 14.845-2.309.123-4.485-.824-5.957-3.174 3.417 1.297 6.982-1.62 7.284-8.059.197-4.184-1.113-8.389-6.451-9.026-4.139-.494-8.759 3.555-8.058 10.811.578 5.984 4.168 11.832 12.782 12.042 8.614.21 13.822-6.983 11.671-18.828-.496-2.734-1.475-8.765-2.714-16.464 18.156-7.396 12.969-41.39-5.9-38.001" />
    </g>
    <g class="NoteDisplay__music-lines">
        <path d="M32.626 84.975h277.999" />
        <path d="M32.626 104.026h277.999M32.626 123.078h277.999M32.626 142.129h277.999" />
        <path d="M32.626 161.18h277.999" />
    </g>
</svg>