<svg viewBox="0 0 660 455">
    <g class="test" transform="scale(.75514 .8243)">
        <g class="NoteDisplay__music-lines">
            <path d="M253 2355h561" transform="matrix(1.4111 0 0 1.46437 -271.667 -3035.358)" />
            <path d="M253 2355h561" transform="matrix(1.4111 0 0 1.46437 -271.667 -3085.057)" />
            <path d="M253 2355h561" transform="matrix(1.4111 0 0 1.46437 -271.667 -3134.756)" />
            <path d="M253 2355h561" transform="matrix(1.4111 0 0 1.46437 -271.667 -3184.454)" />
            <path d="M253 2355h561" transform="matrix(1.4111 0 0 1.46437 -271.667 -3234.153)" />
        </g>
        <g class="NoteDisplay__treble-clef">
            <path d="M204.113 404.354c-3.52-20.065-7.649-43.66-11.854-67.203 29.387 2.35 45.815 51.578 11.854 67.203m-11.603 3.616c-62.846 11.531-66.47-47.12-56.183-79.013 5.954-18.46 22.72-32.313 39.196-50.12 1.938 10.572 4.046 22.501 6.222 35.093-41.333 12.846-41.675 73.826-3.48 79.542-18.127-13.013-22.186-47.312 3.164-55.093 1.466-.449 2.903-.742 4.329-.963 4.029 23.806 8.084 48.348 11.577 69.449a55.77 55.77 0 01-4.825 1.105m.136-243.565c3.66 0 10.94 4.99 10.94 17.398 0 20.294-12.961 40.67-28.83 61.005-8.02-52.665 9.692-78.403 17.89-78.403m-4.094 147.878c-.253.043-.488.111-.741.156-2.51-13.812-4.973-27.118-7.279-39.174 10.202-11.705 19.852-25.295 26.221-42.894 18.414-50.887-8.84-96.411-15.826-96.411-22.806 0-33.05 55.254-21.174 115.147-21.78 27.053-46.876 54.01-51.626 80.575-8.3 46.415 18.817 94.9 77.547 84.374a56.835 56.835 0 002.758-.564c3.292 19.875 5.989 36.028 7.53 44.495 3.78 20.78-6.83 37.844-24.974 38.725-6.576.32-12.772-2.15-16.965-8.278 9.73 3.381 19.882-4.227 20.743-21.023.56-10.917-3.169-21.884-18.37-23.546-11.787-1.291-24.943 9.272-22.947 28.201 1.646 15.611 11.869 30.865 36.399 31.414 24.528.549 39.359-18.217 33.234-49.117-1.413-7.132-4.201-22.864-7.728-42.948 51.7-19.295 36.93-107.972-16.802-99.132" />
        </g>
    </g>
</svg>