<?xml version="1.0" encoding="UTF-8" standalone="no"?>
<!DOCTYPE svg PUBLIC "-//W3C//DTD SVG 1.1//EN" "http://www.w3.org/Graphics/SVG/1.1/DTD/svg11.dtd"><svg width="100%" height="100%" viewBox="0 0 313 223" version="1.1" xmlns="http://www.w3.org/2000/svg" xmlns:xlink="http://www.w3.org/1999/xlink" xml:space="preserve" xmlns:serif="http://www.serif.com/" style="fill-rule:evenodd;clip-rule:evenodd;stroke-linejoin:round;stroke-miterlimit:2;">
    <path class="sharp" d="M9.869,33.988l-4.626,1.542l-0,-12.324l4.626,-1.542l-0,12.324Zm5.244,-14.071l-0,-6.203l-3.552,1.184l-0,-14.898l-1.692,0.14l-0,15.322l-4.626,1.542l-0,-14.559l-1.692,0.14l-0,14.983l-3.551,1.183l0,6.203l3.551,-1.184l-0,12.324l-3.551,1.184l0,6.202l3.551,-1.183l-0,14.898l1.692,-0.14l-0,-15.322l4.626,-1.542l-0,14.56l1.692,-0.14l-0,-14.984l3.552,-1.184l-0,-6.203l-3.552,1.184l-0,-12.323l3.552,-1.184Z" style="fill:#231f20;fill-rule:nonzero;" /></svg>